HIERARCHY
ROOT Hips
{
  OFFSET 0 96.8 0
  CHANNELS 6 Xposition Yposition Zposition Zrotation Xrotation Yrotation
  JOINT Spine
  {
    OFFSET 0 12.3689 -3.99218
    CHANNELS 3 Zrotation Xrotation Yrotation
    JOINT Spine1
    {
      OFFSET 0 14.0303 0
      CHANNELS 3 Zrotation Xrotation Yrotation
      JOINT Spine2
      {
        OFFSET 0 5.60109 0
        CHANNELS 3 Zrotation Xrotation Yrotation
        JOINT Neck
        {
          OFFSET 0 23.8357 -5.66956
          CHANNELS 3 Zrotation Xrotation Yrotation
          JOINT Head
          {
            OFFSET 0 9.08726 0
            CHANNELS 3 Zrotation Xrotation Yrotation
            End Site
            {
              OFFSET 0 19.5091 9.42096
            }
          }
        }
        JOINT RightShoulder
        {
          OFFSET -6.92539 12.7236 -3.42068
          CHANNELS 3 Zrotation Xrotation Yrotation
          JOINT RightArm
          {
            OFFSET 0 11.9164 0
            CHANNELS 3 Zrotation Xrotation Yrotation
            JOINT RightForeArm
            {
              OFFSET -1.03322e-05 25.7 1.48965e-05
              CHANNELS 3 Zrotation Xrotation Yrotation
              JOINT RightHand
              {
                OFFSET -1.0694e-05 26.6 1.54182e-05
                CHANNELS 3 Zrotation Xrotation Yrotation
                JOINT RightHandThumb1
                {
                  OFFSET 2.51819 2.31438 1.47793
                  CHANNELS 3 Zrotation Xrotation Yrotation
                  JOINT RightHandThumb2
                  {
                    OFFSET 0 3.93334 0
                    CHANNELS 3 Zrotation Xrotation Yrotation
                    JOINT RightHandThumb3
                    {
                      OFFSET 0 3.20778 0
                      CHANNELS 3 Zrotation Xrotation Yrotation
                      End Site
                      {
                        OFFSET 0 2.41783 0
                      }
                    }
                  }
                }
                JOINT RightHandIndex1
                {
                  OFFSET 0 8.70165 0
                  CHANNELS 3 Zrotation Xrotation Yrotation
                  JOINT RightHandIndex2
                  {
                    OFFSET 0 3.42558 0
                    CHANNELS 3 Zrotation Xrotation Yrotation
                    JOINT RightHandIndex3
                    {
                      OFFSET 0 2.63863 0
                      CHANNELS 3 Zrotation Xrotation Yrotation
                      End Site
                      {
                        OFFSET 0 2.56659 0
                      }
                    }
                  }
                }
                JOINT RightHandMiddle1
                {
                  OFFSET -2.22417e-05 8.95076 3.74234e-05
                  CHANNELS 3 Zrotation Xrotation Yrotation
                  JOINT RightHandMiddle2
                  {
                    OFFSET 0 3.4742 0
                    CHANNELS 3 Zrotation Xrotation Yrotation
                    JOINT RightHandMiddle3
                    {
                      OFFSET 0 2.76997 0
                      CHANNELS 3 Zrotation Xrotation Yrotation
                      End Site
                      {
                        OFFSET 0 2.7668 0
                      }
                    }
                  }
                }
                JOINT RightHandRing1
                {
                  OFFSET -1.75131 8.54802 0.0404412
                  CHANNELS 3 Zrotation Xrotation Yrotation
                  JOINT RightHandRing2
                  {
                    OFFSET 0 3.17304 0
                    CHANNELS 3 Zrotation Xrotation Yrotation
                    JOINT RightHandRing3
                    {
                      OFFSET 0 2.71333 0
                      CHANNELS 3 Zrotation Xrotation Yrotation
                      End Site
                      {
                        OFFSET 0 2.47778 0
                      }
                    }
                  }
                }
                JOINT RightHandPinky1
                {
                  OFFSET -3.57399 7.58378 0.457001
                  CHANNELS 3 Zrotation Xrotation Yrotation
                  JOINT RightHandPinky2
                  {
                    OFFSET 0 3.3803 0
                    CHANNELS 3 Zrotation Xrotation Yrotation
                    JOINT RightHandPinky3
                    {
                      OFFSET 0 1.97184 0
                      CHANNELS 3 Zrotation Xrotation Yrotation
                      End Site
                      {
                        OFFSET 0 1.98666 0
                      }
                    }
                  }
                }
              }
            }
          }
        }
        JOINT LeftShoulder
        {
          OFFSET 6.92539 12.7236 -3.42068
          CHANNELS 3 Zrotation Xrotation Yrotation
          JOINT LeftArm
          {
            OFFSET 0 11.9164 0
            CHANNELS 3 Zrotation Xrotation Yrotation
            JOINT LeftForeArm
            {
              OFFSET 0 25.7 0
              CHANNELS 3 Zrotation Xrotation Yrotation
              JOINT LeftHand
              {
                OFFSET 0 26.6 0
                CHANNELS 3 Zrotation Xrotation Yrotation
                JOINT LeftHandThumb1
                {
                  OFFSET -2.51807 2.31564 1.48
                  CHANNELS 3 Zrotation Xrotation Yrotation
                  JOINT LeftHandThumb2
                  {
                    OFFSET 0 3.93157 0
                    CHANNELS 3 Zrotation Xrotation Yrotation
                    JOINT LeftHandThumb3
                    {
                      OFFSET 0 3.20977 0
                      CHANNELS 3 Zrotation Xrotation Yrotation
                      End Site
                      {
                        OFFSET 0 2.4231 0
                      }
                    }
                  }
                }
                JOINT LeftHandIndex1
                {
                  OFFSET 0 8.70165 0
                  CHANNELS 3 Zrotation Xrotation Yrotation
                  JOINT LeftHandIndex2
                  {
                    OFFSET 0 3.42522 0
                    CHANNELS 3 Zrotation Xrotation Yrotation
                    JOINT LeftHandIndex3
                    {
                      OFFSET 0 2.63834 0
                      CHANNELS 3 Zrotation Xrotation Yrotation
                      End Site
                      {
                        OFFSET 0 2.56879 0
                      }
                    }
                  }
                }
                JOINT LeftHandMiddle1
                {
                  OFFSET -3.43705e-05 8.9516 -3.05546e-05
                  CHANNELS 3 Zrotation Xrotation Yrotation
                  JOINT LeftHandMiddle2
                  {
                    OFFSET 0 3.4742 0
                    CHANNELS 3 Zrotation Xrotation Yrotation
                    JOINT LeftHandMiddle3
                    {
                      OFFSET 0 2.76997 0
                      CHANNELS 3 Zrotation Xrotation Yrotation
                      End Site
                      {
                        OFFSET 0 2.77266 0
                      }
                    }
                  }
                }
                JOINT LeftHandRing1
                {
                  OFFSET 1.75126 8.5489 0.0404023
                  CHANNELS 3 Zrotation Xrotation Yrotation
                  JOINT LeftHandRing2
                  {
                    OFFSET 0 2.95776 0
                    CHANNELS 3 Zrotation Xrotation Yrotation
                    JOINT LeftHandRing3
                    {
                      OFFSET 0 2.76997 0
                      CHANNELS 3 Zrotation Xrotation Yrotation
                      End Site
                      {
                        OFFSET -2.1854e-05 2.48294 0
                      }
                    }
                  }
                }
                JOINT LeftHandPinky1
                {
                  OFFSET 3.57398 7.58481 0.457164
                  CHANNELS 3 Zrotation Xrotation Yrotation
                  JOINT LeftHandPinky2
                  {
                    OFFSET 0 3.3803 0
                    CHANNELS 3 Zrotation Xrotation Yrotation
                    JOINT LeftHandPinky3
                    {
                      OFFSET 0 1.97184 0
                      CHANNELS 3 Zrotation Xrotation Yrotation
                      End Site
                      {
                        OFFSET 0 1.99582 0
                      }
                    }
                  }
                }
              }
            }
          }
        }
      }
    }
  }
  JOINT RightUpLeg
  {
    OFFSET -8.5 -8.19964 0.08092
    CHANNELS 3 Zrotation Xrotation Yrotation
    JOINT RightLeg
    {
      OFFSET 0 42.9009 0
      CHANNELS 3 Zrotation Xrotation Yrotation
      JOINT RightFoot
      {
        OFFSET 0 38.0864 0
        CHANNELS 3 Zrotation Xrotation Yrotation
        JOINT RightToe
        {
          OFFSET 0 14.087 0
          CHANNELS 3 Zrotation Xrotation Yrotation
          End Site
          {
            OFFSET 0 9.45955 0
          }
        }
      }
    }
  }
  JOINT LeftUpLeg
  {
    OFFSET 8.5 -8.19964 0.08092
    CHANNELS 3 Zrotation Xrotation Yrotation
    JOINT LeftLeg
    {
      OFFSET 0 42.9009 0
      CHANNELS 3 Zrotation Xrotation Yrotation
      JOINT LeftFoot
      {
        OFFSET 0 38.0864 0
        CHANNELS 3 Zrotation Xrotation Yrotation
        JOINT LeftToe
        {
          OFFSET 0 14.087 0
          CHANNELS 3 Zrotation Xrotation Yrotation
          End Site
          {
            OFFSET 0 9.45957 0
          }
        }
      }
    }
  }
}
MOTION
Frames:	4
Frame Time:	0.0166667
0 94.7338 0 3.20304 -0.559285 -7.08712 -0.688144 13.9028 1.72719 -0.526624 -3.8335 1.87554 -0.397261 4.5145 1.39038 3.86186e-06 29.2987 -9.90584e-06 -7.55382e-15 1.27222e-14 -6.55989e-15 67.8202 11.5572 -80.5048 -92.2835 39.7604 39.8115 -32.2604 -1.01204 -18.5665 -36.6869 -25.0421 -38.1396 -30.9004 26.556 14.9798 1.06543 -0.266601 -0.131651 0.7928 -0.191401 -0.091243 -0.0188237 -6.94349e-05 -0 0.0292947 7.95139e-16 -1.59028e-15 -0.0100751 -1.59028e-15 7.95139e-16 -0.0575027 -0.000112091 -7.95139e-16 0.0973881 3.97569e-15 -0 -0.0368804 -1.59028e-15 -1.59028e-15 0.0178567 7.9792e-06 -0 -0.0253838 0 1.59028e-15 -0.0129265 0 7.95139e-16 0.0596292 0.000535225 1.59028e-15 0.096971 7.95139e-16 7.95139e-16 -0.0569265 0 -0 -71.4604 1.33336 85.7929 91.215 54.3265 -32.6992 9.25481 -3.136 -24.5187 -16.2301 25.9764 19.0539 30.7775 26.5578 -14.9111 -0.940956 -0.237838 0.117539 -0.695804 -0.175996 0.084333 -0.0050508 7.6384e-05 3.18055e-15 0.0120434 3.90438e-05 -3.18055e-15 -0.00759159 3.83596e-05 -3.18055e-15 -0.00362641 4.68076e-05 6.36111e-15 0.0024289 -1.87453e-05 3.18055e-15 0.00237084 -4.89982e-05 -0 0.000723448 7.16082e-05 9.54166e-15 -1.98785e-16 -3.97569e-16 -3.18055e-15 -3.97569e-16 -7.95139e-16 -3.18055e-15 0.234317 -0.000570151 2.33218e-06 -0.0241399 7.20261e-05 -3.18055e-15 -0.00768704 1.21015e-05 -0 179.683 19.5058 -7.05715 -1.90861 -39.6288 -9.48683 14.4005 71.7856 -13.5739 -1.55001e-05 39.1744 5.51545e-06 -173.021 17.5757 -26.5419 3.4309 -21.3886 18.4949 -10.5222 65.3058 9.37859 -1.59485e-05 39.1744 5.46156e-06
-0.3706 94.5948 -0.4437 3.34553 -0.573263 -6.32445 -0.690083 13.7974 1.77933 -0.520553 -3.9563 1.93643 -0.393908 4.42679 1.43344 3.86186e-06 29.2987 -9.90584e-06 -7.05686e-15 1.59028e-14 -7.7526e-15 67.8264 11.4837 -80.5443 -91.9817 39.7153 39.2295 -31.5365 -1.35905 -17.2336 -37.599 -23.5135 -37.2017 -30.9004 26.556 14.9798 1.06543 -0.266601 -0.131651 0.7928 -0.191401 -0.091243 -0.0188237 -6.94349e-05 7.95139e-16 0.0292947 7.95139e-16 -7.95139e-16 -0.0100751 -1.98785e-15 -7.95139e-16 -0.0575027 -0.000112091 -0 0.0973881 -3.97569e-16 7.95139e-16 -0.0368804 2.78299e-15 -0 0.0178567 7.9792e-06 -0 -0.0253838 3.18055e-15 -0 -0.0129265 7.95139e-16 7.95139e-16 0.0596292 0.000535225 -7.95139e-16 0.096971 1.19271e-15 7.95139e-16 -0.0569265 -1.98785e-15 1.59028e-15 -71.5709 1.20414 85.8562 92.8443 54.2569 -33.4343 10.4816 -4.44968 -24.4522 -16.1751 26.6526 19.4658 30.7775 26.5578 -14.9111 -0.940956 -0.237838 0.117539 -0.695804 -0.175996 0.084333 -0.0050508 7.6384e-05 -9.54166e-15 0.0120434 3.90438e-05 -3.18055e-15 -0.00759159 3.83596e-05 6.36111e-15 -0.00362641 4.68076e-05 -0 0.0024289 -1.87453e-05 3.18055e-15 0.00237084 -4.89982e-05 3.18055e-15 0.000723448 7.16082e-05 -6.36111e-15 0 1.59028e-15 -0 4.41391e-32 7.95139e-16 -3.18055e-15 0.234317 -0.000570151 2.33218e-06 -0.0241399 7.20261e-05 3.18055e-15 -0.00768704 1.21015e-05 -3.18055e-15 179.787 19.6583 -7.07506 -1.6461 -39.2296 -8.76052 14.4759 71.8745 -13.6312 -1.55001e-05 39.1744 5.51545e-06 -173.006 17.7548 -26.8495 3.37753 -21.0588 18.8318 -10.6022 65.592 9.50362 -1.59485e-05 39.1744 5.46156e-06
-0.5776 94.4761 -0.6569 3.46662 -0.59729 -5.61315 -0.688781 13.6993 1.83564 -0.51003 -4.07052 2.00283 -0.38745 4.3452 1.48002 3.86186e-06 29.2987 -9.90584e-06 -7.15625e-15 0 -6.43565e-15 67.8146 11.4406 -80.5674 -91.5639 39.6521 38.7272 -31.0932 -1.74137 -16.0459 -38.5865 -21.3698 -36.1738 -30.9004 26.556 14.9798 1.06543 -0.266601 -0.131651 0.7928 -0.191401 -0.091243 -0.0188237 -6.94349e-05 7.95139e-16 0.0292947 -2.78299e-15 1.59028e-15 -0.0100751 0 7.95139e-16 -0.0575027 -0.000112091 1.59028e-15 0.0973881 0 -0 -0.0368804 1.19271e-15 -0 0.0178567 7.9792e-06 -0 -0.0253838 3.97569e-16 -7.95139e-16 -0.0129265 -7.95139e-16 7.95139e-16 0.0596292 0.000535225 2.38542e-15 0.096971 3.97569e-15 7.95139e-16 -0.0569265 1.59028e-15 -7.95139e-16 -71.6689 1.09287 85.9145 94.3903 54.1978 -34.1699 11.7458 -5.70677 -24.3236 -16.2475 27.3203 19.8986 30.7775 26.5578 -14.9111 -0.940956 -0.237838 0.117539 -0.695804 -0.175996 0.084333 -0.0050508 7.6384e-05 -3.18055e-15 0.0120434 3.90438e-05 -6.36111e-15 -0.00759159 3.83596e-05 3.18055e-15 -0.00362641 4.68076e-05 -0 0.0024289 -1.87453e-05 -0 0.00237084 -4.89982e-05 -3.18055e-15 0.000723448 7.16082e-05 -3.18055e-15 3.97569e-16 2.38542e-15 3.18055e-15 3.97569e-16 0 -0 0.234317 -0.000570151 2.33218e-06 -0.0241399 7.20261e-05 6.36111e-15 -0.00768704 1.21015e-05 3.18055e-15 179.902 19.7912 -7.1532 -1.40271 -38.8306 -8.0375 14.5719 71.9859 -13.7082 -1.55001e-05 39.1744 5.51545e-06 -173.003 17.8257 -27.0947 3.33237 -20.8146 18.8862 -10.6653 65.7743 9.58307 -1.59485e-05 39.1744 5.46156e-06
-0.7294 94.3865 -0.385 3.53797 -0.654467 -5.04218 -0.68381 13.6203 1.9083 -0.492651 -4.16232 2.089 -0.376271 4.27961 1.54008 3.86186e-06 29.2987 -9.90584e-06 -6.26172e-15 6.36111e-15 -6.75868e-15 67.7436 11.5061 -80.5315 -90.8106 39.5177 38.4071 -30.7155 -1.87139 -15.0695 -40.0194 -18.2469 -34.2052 -30.9004 26.556 14.9798 1.06543 -0.266601 -0.131651 0.7928 -0.191401 -0.091243 -0.0188237 -6.94349e-05 -3.97569e-16 0.0292947 -7.95139e-16 -0 -0.0100751 1.98785e-15 -3.97569e-16 -0.0575027 -0.000112091 -3.97569e-16 0.0973881 1.98785e-15 3.97569e-16 -0.0368804 1.78906e-15 3.97569e-16 0.0178567 7.9792e-06 -7.95139e-16 -0.0253838 -5.96354e-16 3.97569e-16 -0.0129265 0 7.95139e-16 0.0596292 0.000535225 -7.95139e-16 0.096971 -5.96354e-16 -0 -0.0569265 -1.19271e-15 3.97569e-16 -71.7341 1.02428 85.9498 95.7627 54.1761 -34.9328 12.6434 -6.55531 -24.0162 -16.3 27.8682 20.2129 30.7775 26.5578 -14.9111 -0.940956 -0.237838 0.117539 -0.695804 -0.175996 0.084333 -0.0050508 7.6384e-05 -3.18055e-15 0.0120434 3.90438e-05 -0 -0.00759159 3.83596e-05 6.36111e-15 -0.00362641 4.68076e-05 -0 0.0024289 -1.87453e-05 -3.18055e-15 0.00237084 -4.89982e-05 3.18055e-15 0.000723448 7.16082e-05 3.18055e-15 -3.97569e-16 0 -6.36111e-15 1.19271e-15 0 -0 0.234317 -0.000570151 2.33218e-06 -0.0241399 7.20261e-05 3.18055e-15 -0.00768704 1.21015e-05 3.18055e-15 -179.954 19.8518 -7.41691 -1.18494 -38.4385 -7.29542 14.7426 72.18 -13.8576 -1.55001e-05 39.1744 5.51545e-06 -173.081 17.6135 -27.0959 3.33074 -20.733 18.2041 -10.7083 65.7161 9.55016 -1.59485e-05 39.1744 5.46156e-06
